<svg xmlns="http://www.w3.org/2000/svg" width="160" height="160" aria-describedby="desc" aria-labelledby="title" role="img" viewBox="0 0 160 160"><title id="title">Drafting tools</title><desc id="desc">A drafting protractor and triangle</desc><path fill="#e0e0e0" d="M96,77.1000061L124.5999985,128H96V77.1000061 M80,16v128h72L80,16L80,16z"/><path fill="#e0e0e0" d="M8,16v19h1v44c0.6000061,0,1,0.3999939,1,1s-0.3999939,1-1,1v44H8v19c35.3000031,0,64-28.7000122,64-64 S43.3000031,16,8,16z M24,125V35c18.6000061,6.6000061,32,24.1000061,32,45S42.6000061,118.3999939,24,125z"/><rect width="1" height="8" x="8" y="16" fill="#444"/><rect width=".2" height="2" x="13.897" y="16.303" fill="#444" transform="matrix(-0.9961947 -0.0871552 0.0871552 -0.9961947 26.4335175 35.7595749)"/><rect width=".2" height="2" x="24.705" y="18.297" fill="#444" transform="matrix(-0.9659289 -0.2588076 0.2588076 -0.9659289 43.7704163 44.3562164)"/><rect width=".2" height="2" x="35.012" y="22.111" fill="#444" transform="matrix(-0.9063134 -0.4226062 0.4226062 -0.9063134 57.1666985 58.8955345)"/><rect width=".2" height="2" x="44.38" y="27.683" fill="#444" transform="matrix(-0.8191567 -0.5735698 0.5735698 -0.8191567 64.4644928 77.6919861)"/><rect width=".2" height="2" x="52.808" y="34.8" fill="#444" transform="matrix(-0.7071068 -0.7071068 0.7071068 -0.7071068 65.0055695 98.5252914)"/><rect width=".2" height="2" x="59.755" y="43.295" fill="#444" transform="matrix(-0.5735697 -0.8191568 0.8191568 -0.5735697 57.9007874 118.7324295)"/><rect width=".2" height="2" x="65.236" y="52.803" fill="#444" transform="matrix(-0.4226062 -0.9063134 0.9063134 -0.4226062 44.18573 135.7553558)"/><rect width=".2" height="2" x="68.878" y="63.196" fill="#444" transform="matrix(-0.2588077 -0.9659289 0.9659289 -0.2588077 24.8209591 147.4389191)"/><rect width=".2" height="2" x="70.709" y="74.002" fill="#444" transform="matrix(-0.0871553 -0.9961947 0.9961947 -0.0871553 2.2633963 152.0781403)"/><rect width=".2" height="2" x="70.605" y="84.971" fill="#444" transform="matrix(0.0871553 -0.9961947 0.9961947 0.0871553 -21.1008148 148.9135742)"/><rect width=".2" height="2" x="68.627" y="95.774" fill="#444" transform="matrix(0.2588078 -0.9659289 0.9659289 0.2588078 -42.5371323 138.1137695)"/><rect width=".2" height="2" x="64.761" y="106.09" fill="#444" transform="matrix(0.4226063 -0.9063134 0.9063134 0.4226063 -59.6073074 120.6176147)"/><rect width=".2" height="2" x="59.251" y="115.536" fill="#444" transform="matrix(0.5735697 -0.8191568 0.8191568 0.5735697 -70.1526718 98.3122177)"/><rect width=".2" height="2" x="52.093" y="123.91" fill="#444" transform="matrix(0.7071068 -0.7071068 0.7071068 0.7071068 -73.038063 73.4913712)"/><rect width=".2" height="2" x="43.641" y="130.847" fill="#444" transform="matrix(0.8191567 -0.5735698 0.5735698 0.8191567 -67.7134399 48.9320602)"/><rect width=".2" height="2" x="34.148" y="136.293" fill="#444" transform="matrix(0.9063134 -0.4226062 0.4226062 0.9063134 -54.8124161 27.3357391)"/><rect width=".2" height="2" x="23.744" y="139.976" fill="#444" transform="matrix(0.9659289 -0.2588077 0.2588077 0.9659289 -35.6732445 10.9741926)"/><rect width=".2" height="2" x="12.887" y="141.806" fill="#444" transform="matrix(0.9961947 -0.0871552 0.0871552 0.9961947 -12.3968515 1.6752907)"/><rect width=".5" height="4" x="19.023" y="17.006" fill="#444" transform="matrix(-0.9848158 -0.1736027 0.1736027 -0.9848158 34.9538841 41.0690346)"/><rect width=".5" height="4" x="39.18" y="24.594" fill="#444" transform="matrix(-0.8660191 -0.500011 0.500011 -0.8660191 60.2808533 69.34021)"/><rect width=".5" height="4" x="55.625" y="38.548" fill="#444" transform="matrix(-0.6428168 -0.7660199 0.7660199 -0.6428168 60.7316856 109.4150238)"/><rect width=".5" height="4" x="66.155" y="57.285" fill="#444" transform="matrix(-0.3419999 -0.9396999 0.9396999 -0.3419999 33.405674 141.9611206)"/><rect width="10" height="1" x="62" y="79.5" fill="#444"/><rect width=".5" height="4" x="65.824" y="99.636" fill="#444" transform="matrix(0.342 -0.9396999 0.9396999 0.342 -52.0309906 128.9664612)"/><rect width=".5" height="4" x="54.987" y="118.243" fill="#444" transform="matrix(0.6428168 -0.7660199 0.7660199 0.6428168 -72.3785019 85.261734)"/><rect width=".5" height="4" x="38.349" y="131.984" fill="#444" transform="matrix(0.8660191 -0.500011 0.500011 0.8660191 -61.8221474 37.2512283)"/><rect width=".5" height="4" x="18.076" y="139.198" fill="#444" transform="matrix(0.9848158 -0.1736028 0.1736028 0.9848158 -24.2341557 5.3253851)"/><rect width="1" height="8" x="28.501" y="19.809" fill="#444" transform="matrix(-0.9396999 -0.3420001 0.3420001 -0.9396999 48.1114273 56.1003036)"/><rect width="1" height="8" x="46.465" y="30.404" fill="#444" transform="matrix(-0.7660199 -0.6428168 0.6428168 -0.7660199 60.825573 90.9487915)"/><rect width="1" height="8" x="59.744" y="46.411" fill="#444" transform="matrix(-0.500011 -0.8660191 0.8660191 -0.500011 46.7098236 127.7887497)"/><rect width="1" height="8" x="66.664" y="66.085" fill="#444" transform="matrix(-0.1736028 -0.9848158 0.9848158 -0.1736028 9.8031273 148.3956299)"/><rect width="1" height="8" x="66.509" y="86.933" fill="#444" transform="matrix(0.1736028 -0.9848158 0.9848158 0.1736028 -34.1759682 141.1379242)"/><rect width="1" height="8" x="59.257" y="106.444" fill="#444" transform="matrix(0.500011 -0.8660191 0.8660191 0.500011 -65.7685242 106.9711227)"/><rect width="1" height="8" x="45.649" y="122.3" fill="#444" transform="matrix(0.76602 -0.6428168 0.6428168 0.76602 -70.38974 59.2167664)"/><rect width="1" height="8" x="27.5" y="132.525" fill="#444" transform="matrix(0.9396999 -0.342 0.342 0.9396999 -45.0031586 17.808506)"/><rect width="1" height="8" x="8" y="136" fill="#444"/><circle cx="62" cy="80" r="1" fill="#444"/><circle cx="16" cy="80" r="1" fill="#444"/><rect width="4" height=".5" x="80" y="23.2" fill="#444"/><rect width="8" height="1" x="80" y="31" fill="#444"/><rect width="4" height=".5" x="80" y="39.2" fill="#444"/><rect width="8" height="1" x="80" y="47" fill="#444"/><rect width="4" height=".5" x="80" y="55.2" fill="#444"/><rect width="8" height="1" x="80" y="63" fill="#444"/><rect width="4" height=".5" x="80" y="71.2" fill="#444"/><rect width="8" height="1" x="80" y="79" fill="#444"/><rect width="4" height=".5" x="80" y="87.2" fill="#444"/><rect width="8" height="1" x="80" y="95" fill="#444"/><rect width="4" height=".5" x="80" y="103.2" fill="#444"/><rect width="8" height="1" x="80" y="111" fill="#444"/><rect width="4" height=".5" x="80" y="119.2" fill="#444"/><rect width="8" height="1" x="80" y="127" fill="#444"/><rect width="4" height=".5" x="80" y="135.2" fill="#444"/><rect width="8" height="1" x="80" y="143" fill="#444"/><path fill="#444" d="M14,43h-2c-0.6000061,0-1-0.3999939-1-1v-6c0-0.6000061,0.3999939-1,1-1h2c0.6000061,0,1,0.3999939,1,1v6 C15,42.6000061,14.6000061,43,14,43z"/><path fill="#444" d="M14.5,45h-3c-0.3000031,0-0.5-0.2000122-0.5-0.5l0,0c0-0.2999878,0.1999969-0.5,0.5-0.5h3 c0.3000031,0,0.5,0.2000122,0.5,0.5l0,0C15,44.7999878,14.8000031,45,14.5,45z"/><path fill="#e0e0e0" d="M13.5,42h-1c-0.3000031,0-0.5-0.2000122-0.5-0.5l0,0c0-0.2999878,0.1999969-0.5,0.5-0.5h1 c0.3000031,0,0.5,0.2000122,0.5,0.5l0,0C14,41.7999878,13.8000031,42,13.5,42z"/><path fill="#444" d="M14.5,47h-3c-0.3000031,0-0.5-0.2000122-0.5-0.5l0,0c0-0.2999878,0.1999969-0.5,0.5-0.5h3 c0.3000031,0,0.5,0.2000122,0.5,0.5l0,0C15,46.7999878,14.8000031,47,14.5,47z"/><path fill="#444" d="M12.5,49h-1c-0.3000031,0-0.5-0.2000122-0.5-0.5l0,0c0-0.2999878,0.1999969-0.5,0.5-0.5h1 c0.3000031,0,0.5,0.2000122,0.5,0.5l0,0C13,48.7999878,12.8000031,49,12.5,49z"/><path fill="#444" d="M14.5,51h-3c-0.3000031,0-0.5-0.2000122-0.5-0.5l0,0c0-0.2999878,0.1999969-0.5,0.5-0.5h3 c0.3000031,0,0.5,0.2000122,0.5,0.5l0,0C15,50.7999878,14.8000031,51,14.5,51z"/><path fill="#444" d="M14.5,53h-1c-0.3000031,0-0.5-0.2000122-0.5-0.5l0,0c0-0.2999878,0.1999969-0.5,0.5-0.5h1 c0.3000031,0,0.5,0.2000122,0.5,0.5l0,0C15,52.7999878,14.8000031,53,14.5,53z"/><path fill="#444" d="M14.5,55h-1c-0.3000031,0-0.5-0.2000122-0.5-0.5l0,0c0-0.2999878,0.1999969-0.5,0.5-0.5h1 c0.3000031,0,0.5,0.2000122,0.5,0.5l0,0C15,54.7999878,14.8000031,55,14.5,55z"/><path fill="#444" d="M14.5,57h-3c-0.3000031,0-0.5-0.2000122-0.5-0.5l0,0c0-0.2999878,0.1999969-0.5,0.5-0.5h3 c0.3000031,0,0.5,0.2000122,0.5,0.5l0,0C15,56.7999878,14.8000031,57,14.5,57z"/><path fill="#444" d="M14.5,59h-3c-0.3000031,0-0.5-0.2000122-0.5-0.5l0,0c0-0.2999878,0.1999969-0.5,0.5-0.5h3 c0.3000031,0,0.5,0.2000122,0.5,0.5l0,0C15,58.7999878,14.8000031,59,14.5,59z"/><path fill="#444" d="M11,54.5v-2c0-0.2999878,0.1999969-0.5,0.5-0.5l0,0c0.3000031,0,0.5,0.2000122,0.5,0.5v2 c0,0.2999878-0.1999969,0.5-0.5,0.5l0,0C11.1999969,55,11,54.7999878,11,54.5z"/><circle cx="14.5" cy="48.5" r=".5" fill="#444"/><path fill="#444" d="M105,138v2c0,0.6000061-0.4000015,1-1,1h-6c-0.5999985,0-1-0.3999939-1-1v-2c0-0.6000061,0.4000015-1,1-1h6 C104.5999985,137,105,137.3999939,105,138z"/><path fill="#444" d="M107,137.5v3c0,0.2999878-0.1999969,0.5-0.5,0.5l0,0c-0.3000031,0-0.5-0.2000122-0.5-0.5v-3 c0-0.2999878,0.1999969-0.5,0.5-0.5l0,0C106.8000031,137,107,137.2000122,107,137.5z"/><path fill="#fff" d="M104,138.5v1c0,0.2999878-0.1999969,0.5-0.5,0.5l0,0c-0.3000031,0-0.5-0.2000122-0.5-0.5v-1 c0-0.2999878,0.1999969-0.5,0.5-0.5l0,0C103.8000031,138,104,138.2000122,104,138.5z"/><path fill="#444" d="M109,137.5v3c0,0.2999878-0.1999969,0.5-0.5,0.5l0,0c-0.3000031,0-0.5-0.2000122-0.5-0.5v-3 c0-0.2999878,0.1999969-0.5,0.5-0.5l0,0C108.8000031,137,109,137.2000122,109,137.5z"/><path fill="#444" d="M111,139.5v1c0,0.2999878-0.1999969,0.5-0.5,0.5l0,0c-0.3000031,0-0.5-0.2000122-0.5-0.5v-1 c0-0.2999878,0.1999969-0.5,0.5-0.5l0,0C110.8000031,139,111,139.2000122,111,139.5z"/><path fill="#444" d="M113,137.5v3c0,0.2999878-0.1999969,0.5-0.5,0.5l0,0c-0.3000031,0-0.5-0.2000122-0.5-0.5v-3 c0-0.2999878,0.1999969-0.5,0.5-0.5l0,0C112.8000031,137,113,137.2000122,113,137.5z"/><path fill="#444" d="M115,137.5v1c0,0.2999878-0.1999969,0.5-0.5,0.5l0,0c-0.3000031,0-0.5-0.2000122-0.5-0.5v-1 c0-0.2999878,0.1999969-0.5,0.5-0.5l0,0C114.8000031,137,115,137.2000122,115,137.5z"/><path fill="#444" d="M117,137.5v1c0,0.2999878-0.1999969,0.5-0.5,0.5l0,0c-0.3000031,0-0.5-0.2000122-0.5-0.5v-1 c0-0.2999878,0.1999969-0.5,0.5-0.5l0,0C116.8000031,137,117,137.2000122,117,137.5z"/><path fill="#444" d="M119,137.5v3c0,0.2999878-0.1999969,0.5-0.5,0.5l0,0c-0.3000031,0-0.5-0.2000122-0.5-0.5v-3 c0-0.2999878,0.1999969-0.5,0.5-0.5l0,0C118.8000031,137,119,137.2000122,119,137.5z"/><path fill="#444" d="M121,137.5v3c0,0.2999878-0.1999969,0.5-0.5,0.5l0,0c-0.3000031,0-0.5-0.2000122-0.5-0.5v-3 c0-0.2999878,0.1999969-0.5,0.5-0.5l0,0C120.8000031,137,121,137.2000122,121,137.5z"/><path fill="#444" d="M116.5,141h-2c-0.3000031,0-0.5-0.2000122-0.5-0.5l0,0c0-0.2999878,0.1999969-0.5,0.5-0.5h2 c0.3000031,0,0.5,0.2000122,0.5,0.5l0,0C117,140.7999878,116.8000031,141,116.5,141z"/><circle cx="110.5" cy="137.5" r=".5" fill="#444"/><rect width="1" height="90" x="23" y="35" fill="#d6d6d6"/><polygon fill="#d6d6d6" points="95 128 96 128 96 77 95 76"/><polygon fill="#d6d6d6" points="152 144 150 144 80 18 80 16"/></svg>