<svg xmlns="http://www.w3.org/2000/svg" width="160" height="160" aria-describedby="desc" aria-labelledby="title" role="img" viewBox="0 0 160 160"><title id="title">Camera</title><desc id="desc">A camera with a black front and grey trim</desc><path fill="#aaa" d="M142,113.5H17c-0.6000061,0-1-0.3999939-1-1v-44c0-0.6000061,0.3999939-1,1-1h125V113.5z"/><path fill="#ccc" d="M142,112.5H22c-0.6000061,0-1-0.3999939-1-1v-43c0-0.6000061,0.3999939-1,1-1h120V112.5z"/><path fill="#555" d="M142,113.5H38c-3.3000031,0-6-2.7000122-6-6v-34c0-3.2999878,2.6999969-6,6-6h104V113.5z"/><path fill="#aaa" d="M143,67.5H17c-0.6000061,0-1-0.3999939-1-1v-14c0-1.7000122,1.3000031-3,3-3h125v17 C144,67.1000061,143.6000061,67.5,143,67.5z"/><path fill="#ccc" d="M143,67.5H88v-1H22c-0.6000061,0-1-0.3999939-1-1v-13c0-1.7000122,1.3000031-3,3-3h120v17 C144,67.1000061,143.6000061,67.5,143,67.5z"/><rect width="9" height="11" x="66" y="93.5" fill="#333"/><rect width="9" height="8" x="70" y="100.5" fill="#333"/><rect width="9" height="11" x="66" y="92.5" fill="#888"/><rect width="9" height="8" x="70" y="99.5" fill="#888"/><circle cx="88" cy="85.5" r="25" fill="#e0e0e0"/><circle cx="88" cy="85.5" r="23" fill="#f5f5f5"/><circle cx="88" cy="85.5" r="20" fill="#555"/><circle cx="88" cy="85.5" r="16" fill="#333"/><path fill="#888" d="M100,97.5c-6.5999985,6.6000061-17.3999939,6.6000061-24,0l-1.3999939,1.3999939 c7.3999939,7.3999939,19.5,7.3999939,26.9000015,0L100,97.5z"/><circle cx="60" cy="85.5" r="4" fill="#e0e0e0"/><path fill="#ccc" d="M144,50.5H70v-7h71c1.6999969,0,3,1.2999878,3,3V50.5z"/><path fill="#aaa" d="M143,117.5H17c-0.6000061,0-1-0.3999939-1-1v-2c0-0.6000061,0.3999939-1,1-1h126 c0.6000061,0,1,0.3999939,1,1v2C144,117.1000061,143.6000061,117.5,143,117.5z"/><path fill="#ccc" d="M143,117.5H22c-0.6000061,0-1-0.3999939-1-1v-2c0-0.6000061,0.3999939-1,1-1h121 c0.6000061,0,1,0.3999939,1,1v2C144,117.1000061,143.6000061,117.5,143,117.5z"/><rect width="16" height="2" x="31" y="47.5" fill="#aaa"/><rect width="14" height="4" x="32" y="43.5" fill="#aaa"/><path fill="#e0e0e0" d="M46,47.5H35c-0.6000061,0-1-0.3999939-1-1v-2c0-0.6000061,0.3999939-1,1-1h11V47.5z"/><polygon fill="#aaa" points="44 43.5 34 43.5 35 42.5 43 42.5"/><g><rect width=".5" height="4" x="49" y="44.5" fill="#aaa"/><rect width=".5" height="4" x="49.5" y="44.5" fill="#666"/><rect width="18" height=".5" x="49" y="44" fill="#aaa"/><rect width="18" height="1" x="49" y="48.5" fill="#666"/><rect width="16" height="1" x="31" y="48.5" fill="#666"/><polygon fill="#aaa" points="48 45.5 48.5 45 48.5 48.5 48 48.5"/><polygon fill="#666" points="48.5 45 49 44.5 49 48.5 48.5 48.5"/><rect width=".5" height="4" x="50" y="44.5" fill="#aaa"/><rect width=".5" height="4" x="50.5" y="44.5" fill="#666"/><rect width=".5" height="4" x="51" y="44.5" fill="#aaa"/><rect width=".5" height="4" x="51.5" y="44.5" fill="#666"/><rect width=".5" height="4" x="52" y="44.5" fill="#aaa"/><rect width=".5" height="4" x="52.5" y="44.5" fill="#888"/><rect width=".5" height="4" x="54" y="44.5" fill="#e0e0e0"/><rect width=".5" height="4" x="54.5" y="44.5" fill="#aaa"/><rect width=".5" height="4" x="53" y="44.5" fill="#ccc"/><rect width=".5" height="4" x="53.5" y="44.5" fill="#888"/><rect width=".5" height="4" x="55" y="44.5" fill="#e0e0e0"/><rect width=".5" height="4" x="55.5" y="44.5" fill="#aaa"/><rect width=".5" height="4" x="56" y="44.5" fill="#e0e0e0"/><rect width=".5" height="4" x="56.5" y="44.5" fill="#aaa"/><rect width=".5" height="4" x="57" y="44.5" fill="#e0e0e0"/><rect width=".5" height="4" x="57.5" y="44.5" fill="#aaa"/><rect width=".5" height="4" x="59" y="44.5" fill="#e0e0e0"/><rect width=".5" height="4" x="59.5" y="44.5" fill="#aaa"/><rect width=".5" height="4" x="58" y="44.5" fill="#e0e0e0"/><rect width=".5" height="4" x="58.5" y="44.5" fill="#aaa"/><rect width=".5" height="4" x="60" y="44.5" fill="#e0e0e0"/><rect width=".5" height="4" x="60.5" y="44.5" fill="#aaa"/><rect width=".5" height="4" x="61" y="44.5" fill="#e0e0e0"/><rect width=".5" height="4" x="61.5" y="44.5" fill="#888"/><rect width=".5" height="4" x="62" y="44.5" fill="#ccc"/><rect width=".5" height="4" x="62.5" y="44.5" fill="#888"/><rect width=".5" height="4" x="64" y="44.5" fill="#aaa"/><rect width=".5" height="4" x="64.5" y="44.5" fill="#666"/><rect width=".5" height="4" x="63" y="44.5" fill="#aaa"/><rect width=".5" height="4" x="63.5" y="44.5" fill="#666"/><rect width=".5" height="4" x="65" y="44.5" fill="#aaa"/><rect width=".5" height="4" x="65.5" y="44.5" fill="#666"/><rect width=".5" height="4" x="66" y="44.5" fill="#aaa"/><rect width=".5" height="4" x="66.5" y="44.5" fill="#666"/><polygon fill="#aaa" points="67 44.5 67.5 45 67.5 48.5 67 48.5"/><polygon fill="#666" points="67.5 45 68 45.5 68 48.5 67.5 48.5"/></g><circle cx="88" cy="51.5" r="5" fill="#c10017"/><path fill="#fff" d="M85.5,53.5L85.5,53.5c-0.3000031,0-0.5-0.2000122-0.5-0.5v-3c0-0.2999878,0.1999969-0.5,0.5-0.5l0,0 c0.3000031,0,0.5,0.2000122,0.5,0.5v3C86,53.2999878,85.8000031,53.5,85.5,53.5z"/><path fill="#fff" d="M88.5,53.5L88.5,53.5c-0.3000031,0-0.5-0.2000122-0.5-0.5v-1c0-0.2999878,0.1999969-0.5,0.5-0.5l0,0 c0.3000031,0,0.5,0.2000122,0.5,0.5v1C89,53.2999878,88.8000031,53.5,88.5,53.5z"/><path fill="#fff" d="M88,53L88,53c0-0.2999878,0.1999969-0.5,0.5-0.5h2c0.3000031,0,0.5,0.2000122,0.5,0.5l0,0 c0,0.2999878-0.1999969,0.5-0.5,0.5h-2C88.1999969,53.5,88,53.2999878,88,53z"/><path fill="#fff" d="M85,51L85,51c0-0.2999878,0.1999969-0.5,0.5-0.5h1c0.3000031,0,0.5,0.2000122,0.5,0.5l0,0 c0,0.2999878-0.1999969,0.5-0.5,0.5h-1C85.1999969,51.5,85,51.2999878,85,51z"/><path fill="#fff" d="M90.5,51.5L90.5,51.5c-0.3000031,0-0.5-0.2000122-0.5-0.5v-1c0-0.2999878,0.1999969-0.5,0.5-0.5l0,0 c0.3000031,0,0.5,0.2000122,0.5,0.5v1C91,51.2999878,90.8000031,51.5,90.5,51.5z"/><circle cx="88.5" cy="50" r=".5" fill="#fff"/><path fill="#555" d="M26.5,61.5h-1c-0.3000031,0-0.5-0.2000122-0.5-0.5v-7c0-0.2999878,0.1999969-0.5,0.5-0.5h1 c0.3000031,0,0.5,0.2000122,0.5,0.5v7C27,61.2999878,26.8000031,61.5,26.5,61.5z"/><path fill="#555" d="M29,61v-1c0-0.2999878,0.1999969-0.5,0.5-0.5h5c0.3000031,0,0.5,0.2000122,0.5,0.5v1 c0,0.2999878-0.1999969,0.5-0.5,0.5h-5C29.1999969,61.5,29,61.2999878,29,61z"/><path fill="#555" d="M23,57v-1c0-0.2999878,0.1999969-0.5,0.5-0.5h3c0.3000031,0,0.5,0.2000122,0.5,0.5v1 c0,0.2999878-0.1999969,0.5-0.5,0.5h-3C23.1999969,57.5,23,57.2999878,23,57z"/><path fill="#555" d="M34.5,57.5h-1c-0.3000031,0-0.5-0.2000122-0.5-0.5v-3c0-0.2999878,0.1999969-0.5,0.5-0.5h1 c0.3000031,0,0.5,0.2000122,0.5,0.5v3C35,57.2999878,34.8000031,57.5,34.5,57.5z"/><circle cx="30" cy="54.5" r="1" fill="#555"/><path fill="#333" d="M134,63.5h-16c-1.0999985,0-2-0.8999939-2-2v-12c0-1.1000061,0.9000015-2,2-2h16 c1.1000061,0,2,0.8999939,2,2v12C136,62.6000061,135.1000061,63.5,134,63.5z"/><path fill="#a3c9cc" d="M134,62.5h-16c-0.5999985,0-1-0.3999939-1-1v-1h18v1C135,62.1000061,134.6000061,62.5,134,62.5z"/><path fill="#a3c9cc" d="M118,48.5h16c0.6000061,0,1,0.3999939,1,1v1h-18v-1C117,48.8999939,117.4000015,48.5,118,48.5z"/><path fill="#333" d="M63,59.5h-6c-0.6000061,0-1-0.3999939-1-1v-4c0-0.6000061,0.3999939-1,1-1h6c0.6000061,0,1,0.3999939,1,1v4 C64,59.1000061,63.6000061,59.5,63,59.5z"/><circle cx="88" cy="67.5" r="1" fill="#f5f5f5"/><circle cx="74.5" cy="48" r="2.5" fill="#333"/><circle cx="60" cy="85.5" r="3" fill="#f5f5f5"/><circle cx="60" cy="85.5" r="2" fill="#aaa"/></svg>