<svg xmlns="http://www.w3.org/2000/svg" width="160" height="160" aria-describedby="desc" aria-labelledby="title" role="img" viewBox="0 0 160 160"><title id="title">Smart phone</title><desc id="desc">The back view of a modern smart phone</desc><g><path fill="#e0e0e0" d="M112,36L112,36c0.5999985,0,1-0.3999939,1-1v-2c0-0.6000061-0.4000015-1-1-1l0,0 c-0.5999985,0-1,0.3999939-1,1v2C111,35.6000061,111.4000015,36,112,36z"/><path fill="#e0e0e0" d="M112,48L112,48c0.5999985,0,1-0.3999939,1-1v-6c0-0.6000061-0.4000015-1-1-1l0,0 c-0.5999985,0-1,0.3999939-1,1v6C111,47.6000061,111.4000015,48,112,48z"/><path fill="#e0e0e0" d="M48,48L48,48c0.6000061,0,1-0.3999939,1-1v-6c0-0.6000061-0.3999939-1-1-1l0,0 c-0.6000061,0-1,0.3999939-1,1v6C47,47.6000061,47.3999939,48,48,48z"/><path fill="#e0e0e0" d="M112,58L112,58c0.5999985,0,1-0.3999939,1-1v-6c0-0.6000061-0.4000015-1-1-1l0,0 c-0.5999985,0-1,0.3999939-1,1v6C111,57.6000061,111.4000015,58,112,58z"/></g><g><path fill="#e0e0e0" d="M48,22v116c0,3.2999878,2.6999969,6,6,6h52c3.3000031,0,6-2.7000122,6-6V22c0-3.2999878-2.6999969-6-6-6H54 C50.6999969,16,48,18.7000122,48,22z"/><path fill="#eee" d="M111,26v-4c0-2.7999878-2.1999969-5-5-5H54c-2.8000031,0-5,2.2000122-5,5v4H111z"/><path fill="#eee" d="M49,134v4c0,2.7999878,2.1999969,5,5,5h52c2.8000031,0,5-2.2000122,5-5v-4H49z"/><rect width="64" height="106" x="48" y="27" fill="#eee"/></g><g><circle cx="59" cy="21" r="3.2" fill="#fff"/><circle cx="59" cy="21" r="3" fill="#2b2b2b"/><circle cx="59" cy="21" r="2" fill="#383838"/><circle cx="59" cy="21" r="1" fill="#444"/><circle cx="59.4" cy="20.6" r=".5" fill="#066"/><circle cx="58.6" cy="21.4" r=".5" fill="#066"/><circle cx="64.5" cy="21.5" r=".5" fill="#2b2b2b"/><circle cx="68.5" cy="21.5" r="1.5" fill="#e0e0e0"/><circle cx="68.5" cy="20.8" r=".8" fill="#fff"/><circle cx="68.5" cy="22.2" r=".8" fill="#fff"/></g><circle cx="80" cy="50" r="8" fill="#e0e0e0"/></svg>