<svg xmlns="http://www.w3.org/2000/svg" width="160" height="160" aria-describedby="desc" aria-labelledby="title" role="img" viewBox="0 0 160 160"><title id="title">Television</title><desc id="desc">A wide flat screen television</desc><polygon fill="#aaa" points="112 126 48 126 49 123 49 118 41 128 119 128 111 118 111 123"/><polygon fill="#e0e0e0" points="110 118 115 127 45 127 50 118 49 118 41 128 41 129 119 129 119 128 111 118"/><path fill="#383838" d="M88.5,122c0.3,0,0.5,0.2,0.5,0.5s-0.2,0.5-0.5,0.5h-17c-0.3,0-0.5-0.2-0.5-0.5s0.2-0.5,0.5-0.5l-2.5-1v1 l1.7,1.7c0.2,0.2,0.4,0.3,0.7,0.3h17.2c0.3,0,0.5-0.1,0.7-0.3L91,122v-1L88.5,122z"/><path fill="#a3c9cc" d="M81.5,124h-3c-0.3,0-0.5-0.2-0.5-0.5l0,0c0-0.3,0.2-0.5,0.5-0.5h3c0.3,0,0.5,0.2,0.5,0.5l0,0 C82,123.8,81.8,124,81.5,124z"/><path fill="#ccfeff" d="M80.5,124h-1c-0.3,0-0.5-0.2-0.5-0.5l0,0c0-0.3,0.2-0.5,0.5-0.5h1c0.3,0,0.5,0.2,0.5,0.5l0,0 C81,123.8,80.8,124,80.5,124z"/><path fill="#383838" d="M151,122H9c-0.6,0-1-0.4-1-1V40c0-0.6,0.4-1,1-1h142c0.6,0,1,0.4,1,1v81C152,121.6,151.6,122,151,122z"/><path fill="#555" d="M150,122H10c-0.6,0-1-0.4-1-1V40c0-0.6,0.4-1,1-1h140c0.6,0,1,0.4,1,1v81C151,121.6,150.6,122,150,122z"/><path fill="#383838" d="M90.5,121h-21c-0.3,0-0.5-0.2-0.5-0.5l0,0c0-0.3,0.2-0.5,0.5-0.5h21c0.3,0,0.5,0.2,0.5,0.5l0,0 C91,120.8,90.8,121,90.5,121z"/><path fill="#f5f5f5" d="M83.5,121h-7c-0.3,0-0.5-0.2-0.5-0.5l0,0c0-0.3,0.2-0.5,0.5-0.5h7c0.3,0,0.5,0.2,0.5,0.5l0,0 C84,120.8,83.8,121,83.5,121z"/><rect width="140" height="78" x="10" y="41" fill="#f5f5f5"/><rect width="78" height="1" x="41" y="128" fill="#ccc"/><circle cx="10.5" cy="120.5" r=".5" fill="#383838"/><circle cx="12.5" cy="120.5" r=".5" fill="#383838"/><circle cx="14.5" cy="120.5" r=".5" fill="#383838"/><circle cx="149.5" cy="120.5" r=".5" fill="#383838"/><circle cx="147.5" cy="120.5" r=".5" fill="#383838"/><circle cx="145.5" cy="120.5" r=".5" fill="#383838"/></svg>