<svg xmlns="http://www.w3.org/2000/svg" width="160" height="160" aria-describedby="desc" aria-labelledby="title" role="img" viewBox="0 0 160 160"><title id="title">Drafting compass</title><desc id="desc">A pair of drafting compasses, one open and one closed</desc><circle cx="81" cy="83" r="1" fill="#999"/><rect width="2" height="5" x="80" y="83" fill="#999"/><path fill="#333" d="M80.3000031,113c0,0-1.3000031-2.7000122-1.3000031-6s0.8999939-6,2-6s2,2.7000122,2,6 s-1.3000031,6-1.3000031,6"/><rect width="29" height=".9" x="96" y="76.1" fill="#666"/><rect width="1" height="17" x="110" y="68" fill="#bbb"/><rect width="1" height="8" x="110" y="77" fill="#aaa"/><rect width="1" height="35" x="110" y="25" fill="#666"/><path fill="#bbb" d="M110.5,30C103.5999985,30,98,35.6000061,98,42.5S103.5999985,55,110.5,55S123,49.3999939,123,42.5 S117.4000015,30,110.5,30z M110.5,54C104.1999969,54,99,48.8999939,99,42.5S104.0999985,31,110.5,31S122,36.1000061,122,42.5 S116.8000031,54,110.5,54z"/><ellipse cx="110.5" cy="15" fill="#e0e0e0" rx="2.5" ry="1"/><rect width=".5" height="10" x="109" y="15" fill="#e0e0e0"/><rect width=".5" height="10" x="109.5" y="15" fill="#bbb"/><rect width=".5" height="10" x="108" y="15" fill="#e0e0e0"/><rect width=".5" height="10" x="108.5" y="15" fill="#bbb"/><rect width=".5" height="10" x="110" y="15" fill="#e0e0e0"/><rect width=".5" height="10" x="110.5" y="15" fill="#bbb"/><rect width=".5" height="10" x="111" y="15" fill="#e0e0e0"/><rect width=".5" height="10" x="111.5" y="15" fill="#bbb"/><rect width=".5" height="10" x="112" y="15" fill="#e0e0e0"/><rect width=".5" height="10" x="112.5" y="15" fill="#bbb"/><g><path fill="#e0e0e0" d="M116,134l-2,6h-2V52.3999939c0-0.2999878,0.0999985-0.5,0.3000031-0.7000122l2-2 C114.9000015,49.0999756,116,49.4999695,116,50.3999939V134z"/><polygon fill="#666" points="114 144 112 146 112 140 114 140"/><g><circle cx="116" cy="134" r="3" fill="#bbb"/><circle cx="116" cy="134" r=".5" fill="#666"/></g><circle cx="114" cy="78" r="1" fill="#bbb"/></g><g><path fill="#e0e0e0" d="M105,134l2,6h2V52.3999939c0-0.2999878-0.0999985-0.5-0.3000031-0.7000122l-2-2 C106.0999985,49.0999756,105,49.4999695,105,50.3999939V134z"/><polygon fill="#bbb" points="109 145 109 140 108 140"/><g><circle cx="105" cy="134" r="3" fill="#bbb"/><circle cx="105" cy="134" r=".5" fill="#666"/></g><circle cx="107" cy="78" r="1" fill="#bbb"/></g><rect width="1" height="1" x="110" y="69" fill="#aaa"/><rect width="1" height="1" x="110" y="71" fill="#aaa"/><rect width="1" height="1" x="110" y="73" fill="#aaa"/><rect width="1" height="1" x="110" y="75" fill="#aaa"/><rect width="1" height="1" x="110" y="77" fill="#999"/><rect width="1" height="1" x="110" y="79" fill="#999"/><rect width="1" height="1" x="110" y="81" fill="#999"/><rect width="1" height="1" x="110" y="84" fill="#777"/><rect width="1" height="1" x="110" y="83" fill="#999"/><rect width="6" height=".5" x="125" y="76" fill="#e0e0e0"/><rect width="6" height=".5" x="125" y="76.5" fill="#bbb"/><rect width="6" height=".5" x="125" y="77" fill="#e0e0e0"/><rect width="6" height=".5" x="125" y="77.5" fill="#bbb"/><rect width="6" height=".5" x="125" y="75" fill="#e0e0e0"/><rect width="6" height=".5" x="125" y="75.5" fill="#bbb"/><rect width="6" height=".5" x="90" y="76" fill="#e0e0e0"/><rect width="6" height=".5" x="90" y="76.5" fill="#bbb"/><rect width="6" height=".5" x="90" y="77" fill="#e0e0e0"/><rect width="6" height=".5" x="90" y="77.5" fill="#bbb"/><rect width="6" height=".5" x="90" y="75" fill="#e0e0e0"/><rect width="6" height=".5" x="90" y="75.5" fill="#bbb"/><rect width="33.1" height="1" x="36" y="77" fill="#666"/><rect width="1" height="17" x="50" y="69" fill="#bbb"/><rect width="1" height="8" x="50" y="78" fill="#aaa"/><rect width="1" height="33" x="50" y="25" fill="#666"/><path fill="#bbb" d="M50.5,30C43.6000061,30,38,35.6000061,38,42.5S43.6000061,55,50.5,55S63,49.3999939,63,42.5 S57.3999939,30,50.5,30z M50.5,54C44.1999969,54,39,48.8999939,39,42.5S44.1000061,31,50.5,31S62,36.1000061,62,42.5 S56.8000031,54,50.5,54z"/><ellipse cx="50.5" cy="15" fill="#e0e0e0" rx="2.5" ry="1"/><rect width=".5" height="10" x="49" y="15" fill="#e0e0e0"/><rect width=".5" height="10" x="49.5" y="15" fill="#bbb"/><rect width=".5" height="10" x="48" y="15" fill="#e0e0e0"/><rect width=".5" height="10" x="48.5" y="15" fill="#bbb"/><rect width=".5" height="10" x="50" y="15" fill="#e0e0e0"/><rect width=".5" height="10" x="50.5" y="15" fill="#bbb"/><rect width=".5" height="10" x="51" y="15" fill="#e0e0e0"/><rect width=".5" height="10" x="51.5" y="15" fill="#bbb"/><rect width=".5" height="10" x="52" y="15" fill="#e0e0e0"/><rect width=".5" height="10" x="52.5" y="15" fill="#bbb"/><g><path fill="#e0e0e0" d="M66.5,132.7000122l-1.1999969,6.2000122l-2,0.2999878l-12-86.7999878 c0-0.2999878,0-0.5,0.1999969-0.7000122l1.6999969-2.2999878c0.5-0.7000122,1.6999969-0.3999939,1.8000031,0.5L66.5,132.7000122z"/><polygon fill="#666" points="65.9 142.8 64.2 145.1 63.4 139.1 65.3 138.9"/><g><circle cx="66.5" cy="132.7" r="3" fill="#bbb"/><circle cx="66.5" cy="132.7" r=".5" fill="#666"/></g><circle cx="56.8" cy="77.5" r="1" fill="#bbb"/></g><rect width="1" height="1" x="50" y="70" fill="#aaa"/><rect width="1" height="1" x="50" y="72" fill="#aaa"/><rect width="1" height="1" x="50" y="74" fill="#aaa"/><rect width="1" height="1" x="50" y="76" fill="#aaa"/><rect width="1" height="1" x="50" y="78" fill="#999"/><rect width="1" height="1" x="50" y="80" fill="#999"/><rect width="1" height="1" x="50" y="82" fill="#999"/><rect width="1" height="1" x="50" y="85" fill="#777"/><rect width="1" height="1" x="50" y="84" fill="#999"/><rect width="6" height=".5" x="65" y="77" fill="#e0e0e0"/><rect width="6" height=".5" x="65" y="77.5" fill="#bbb"/><rect width="6" height=".5" x="65" y="78" fill="#e0e0e0"/><rect width="6" height=".5" x="65" y="78.5" fill="#bbb"/><rect width="6" height=".5" x="65" y="76" fill="#e0e0e0"/><rect width="6" height=".5" x="65" y="76.5" fill="#bbb"/><rect width="6" height=".5" x="30" y="77" fill="#e0e0e0"/><rect width="6" height=".5" x="30" y="77.5" fill="#bbb"/><rect width="6" height=".5" x="30" y="78" fill="#e0e0e0"/><rect width="6" height=".5" x="30" y="78.5" fill="#bbb"/><rect width="6" height=".5" x="30" y="76" fill="#e0e0e0"/><rect width="6" height=".5" x="30" y="76.5" fill="#bbb"/><g><path fill="#e0e0e0" d="M34.5,132.7000122l1.1999969,6.2000122l2,0.2999878l12-86.7999878c0-0.2999878,0-0.5-0.1999969-0.7000122 l-1.6999969-2.2999878c-0.5-0.7000122-1.6999969-0.3999939-1.8000031,0.5L34.5,132.7000122z"/><polygon fill="#bbb" points="37 143 37.6 139.1 36.7 139"/><g><circle cx="34.5" cy="132.7" r="3" fill="#bbb"/><circle cx="34.5" cy="132.7" r=".5" fill="#666"/></g><circle cx="44.2" cy="77.5" r="1" fill="#bbb"/></g><circle cx="50.5" cy="58.5" r="2.5" fill="#666"/><circle cx="110.5" cy="58.5" r="2.5" fill="#666"/><rect width="4" height="20" x="79" y="87" fill="#333"/><circle cx="86" cy="100.5" r=".5" fill="#333"/><circle cx="81" cy="100.5" r=".5" fill="#e0e0e0"/><polygon fill="#999" points="81 115 80.3 113 81.7 113"/><rect width="2" height="5" x="84" y="98" fill="#666"/><rect width="2" height="1" x="84" y="99" fill="#555"/><rect width="2" height="1" x="84" y="101" fill="#555"/><rect width="2" height="1" x="84" y="102" fill="#343434"/><rect width="1" height="1" x="83" y="100" fill="#333"/><path fill="#444" d="M80,87v20c0,2.1000061,0.3999939,3.8999939,0.6999969,5h1.3999939 c0.3999939-1.1000061,0.8999939-2.8999939,0.8999939-5V87H80z"/></svg>