<svg xmlns="http://www.w3.org/2000/svg" width="160" height="160" aria-describedby="desc" aria-labelledby="title" role="img" viewBox="0 0 160 160"><title id="title">Code editor window</title><desc id="desc">A text editor window with code written inside it</desc><path fill="#ccc" d="M142,16H18c-1.1000061,0-2,0.8999939-2,2v124c0,1.1000061,0.8999939,2,2,2h124c1.1000061,0,2-0.8999939,2-2 V18C144,16.8999939,143.1000061,16,142,16z"/><path fill="#333" d="M16,22h128v120c0,1.1000061-0.8999939,2-2,2H18c-1.1000061,0-2-0.8999939-2-2V22z"/><circle cx="19" cy="19" r="1" fill="#f33"/><circle cx="23" cy="19" r="1" fill="#ff3"/><circle cx="27" cy="19" r="1" fill="#39b54a"/><path fill="#2d2d2d" d="M25,144h-7c-1.1000061,0-2-0.8999939-2-2V22h9V144z"/><text fill="#777" font-family="'Courier'" font-size="4" transform="matrix(1 0 0 1 19 29)">1</text><text fill="#777" font-family="'Courier'" font-size="4" transform="matrix(1 0 0 1 19 37)">2</text><text fill="#777" font-family="'Courier'" font-size="4" transform="matrix(1 0 0 1 19 45)">3</text><text fill="#777" font-family="'Courier'" font-size="4" transform="matrix(1 0 0 1 19 53)">4</text><text fill="#777" font-family="'Courier'" font-size="4" transform="matrix(1 0 0 1 19 61)">5</text><text fill="#777" font-family="'Courier'" font-size="4" transform="matrix(1 0 0 1 19 69)">6</text><text fill="#777" font-family="'Courier'" font-size="4" transform="matrix(1 0 0 1 19 77)">7</text><text fill="#777" font-family="'Courier'" font-size="4" transform="matrix(1 0 0 1 19 85)">8</text><text fill="#777" font-family="'Courier'" font-size="4" transform="matrix(1 0 0 1 19 93)">9</text><text fill="#777" font-family="'Courier'" font-size="4" transform="matrix(1 0 0 1 19 101)">10</text><text fill="#777" font-family="'Courier'" font-size="4" transform="matrix(1 0 0 1 19 109)">11</text><text fill="#777" font-family="'Courier'" font-size="4" transform="matrix(1 0 0 1 19 117)">12</text><text fill="#777" font-family="'Courier'" font-size="4" transform="matrix(1 0 0 1 19 125)">13</text><text fill="#777" font-family="'Courier'" font-size="4" transform="matrix(1 0 0 1 19 133)">14</text><text fill="#9a6e35" font-family="'Courier'" font-size="4" transform="matrix(1 0 0 1 27 29)">!!!</text><text fill="#9a6e35" font-family="'Courier'" font-size="4" transform="matrix(1 0 0 1 27 37)">%html</text><text fill="#9a6e35" font-family="'Courier'" font-size="4" transform="matrix(1 0 0 1 27 45)">%head</text><text fill="#9a6e35" font-family="'Courier'" font-size="4" transform="matrix(1 0 0 1 27 53)">%meta</text><text fill="#fff" font-family="'Courier'" font-size="4" transform="matrix(1 0 0 1 48.6000061 53)">(</text><text fill="#d1ca7e" font-family="'Courier'" font-size="4" transform="matrix(1 0 0 1 51 53)">charset</text><text fill="#fff" font-family="'Courier'" font-size="4" transform="matrix(1 0 0 1 67.7999878 53)">=</text><text fill="#96b38b" font-family="'Courier'" font-size="4" transform="matrix(1 0 0 1 70.2000122 53)">&apos;utf-8&apos;</text><text fill="#fff" font-family="'Courier'" font-size="4" transform="matrix(1 0 0 1 87 53)">)</text><text fill="#9a6e35" font-family="'Courier'" font-size="4" transform="matrix(1 0 0 1 36.6000061 61)">%meta</text><text fill="#fff" font-family="'Courier'" font-size="4" transform="matrix(1 0 0 1 48.6000061 61)">(</text><text fill="#d1ca7e" font-family="'Courier'" font-size="4" transform="matrix(1 0 0 1 51 61)">content</text><text fill="#fff" font-family="'Courier'" font-size="4" transform="matrix(1 0 0 1 67.7999878 61)">=</text><text fill="#96b38b" font-family="'Courier'" font-size="4" transform="matrix(1 0 0 1 70.2000122 61)">&quot;detail&quot;</text><text fill="#d1ca7e" font-family="'Courier'" font-size="4" transform="matrix(1 0 0 1 89.3999939 61)">name</text><text fill="#fff" font-family="'Courier'" font-size="4" transform="matrix(1 0 0 1 101.3999939 61)">=</text><text fill="#96b38b" font-family="'Courier'" font-size="4" transform="matrix(1 0 0 1 103.7999878 61)">&quot;description&quot;</text><text fill="#fff" font-family="'Courier'" font-size="4" transform="matrix(1 0 0 1 135 61)">)</text><text fill="#9a6e35" font-family="'Courier'" font-size="4" transform="matrix(1 0 0 1 36.6000061 69)">%meta</text><text fill="#fff" font-family="'Courier'" font-size="4" transform="matrix(1 0 0 1 48.6000061 69)">(</text><text fill="#d1ca7e" font-family="'Courier'" font-size="4" transform="matrix(1 0 0 1 51 69)">content</text><text fill="#fff" font-family="'Courier'" font-size="4" transform="matrix(1 0 0 1 67.7999878 69)">=</text><text fill="#96b38b" font-family="'Courier'" font-size="4" transform="matrix(1 0 0 1 70.2000122 69)">&apos;width=device-width&apos;</text><text fill="#fff" font-family="'Courier'" font-size="4" transform="matrix(1 0 0 1 118.2000122 69)">)</text><text fill="#9a6e35" font-family="'Courier'" font-size="4" transform="matrix(1 0 0 1 36.6000061 77)">%title</text><text fill="#fff" font-family="'Courier'" font-size="4" transform="matrix(1 0 0 1 41.3999939 85)">-</text><text fill="#d1ca7e" font-family="'Courier'" font-size="4" transform="matrix(1 0 0 1 43.7999878 85)">if content_for?</text><text fill="#fff" font-family="'Courier'" font-size="4" transform="matrix(1 0 0 1 82.2000122 85)">(</text><text fill="#96b38b" font-family="'Courier'" font-size="4" transform="matrix(1 0 0 1 84.6000061 85)">:title</text><text fill="#fff" font-family="'Courier'" font-size="4" transform="matrix(1 0 0 1 99 85)">)</text><text fill="#fff" font-family="'Courier'" font-size="4" transform="matrix(1 0 0 1 46.2000122 93)">=</text><text fill="#d1ca7e" font-family="'Courier'" font-size="4" transform="matrix(1 0 0 1 48.6000061 93)">yield</text><text fill="#96b38b" font-family="'Courier'" font-size="4" transform="matrix(1 0 0 1 65.3999939 93)">:title</text><text fill="#fff" font-family="'Courier'" font-size="4" transform="matrix(1 0 0 1 41.3999939 101)">-</text><text fill="#d1ca7e" font-family="'Courier'" font-size="4" transform="matrix(1 0 0 1 43.7999878 101)">else</text><text fill="#fff" font-family="'Courier'" font-size="4" transform="matrix(1 0 0 1 46.2000122 109)">=</text><text fill="#d1ca7e" font-family="'Courier'" font-size="4" transform="matrix(1 0 0 1 48.6000061 109)">title</text><text fill="#fff" font-family="'Courier'" font-size="4" transform="matrix(1 0 0 1 36.6000061 125)">=</text><text fill="#d1ca7e" font-family="'Courier'" font-size="4" transform="matrix(1 0 0 1 39 125)">stylesheet_link_tag</text><text fill="#96b38b" font-family="'Courier'" font-size="4" transform="matrix(1 0 0 1 89.3999939 125)">:application</text><text fill="#fff" font-family="'Courier'" font-size="4" transform="matrix(1 0 0 1 36.6000061 133)">=</text><text fill="#d1ca7e" font-family="'Courier'" font-size="4" transform="matrix(1 0 0 1 39 133)">javascript_include_tag</text><text fill="#96b38b" font-family="'Courier'" font-size="4" transform="matrix(1 0 0 1 96.6000061 133)">&apos;app.js&apos;</text><path fill="#222" d="M141.5,136L141.5,136c0.3000031,0,0.5-0.2000122,0.5-0.5v-110c0-0.2999878-0.1999969-0.5-0.5-0.5l0,0 c-0.3000031,0-0.5,0.2000122-0.5,0.5v110C141,135.7999878,141.1999969,136,141.5,136z"/><path fill="#777" d="M141.5,56L141.5,56c0.3000031,0,0.5-0.2000122,0.5-0.5v-30c0-0.2999878-0.1999969-0.5-0.5-0.5l0,0 c-0.3000031,0-0.5,0.2000122-0.5,0.5v30C141,55.7999878,141.1999969,56,141.5,56z"/></svg>